{
    "asset" : {
        "generator" : "Khronos glTF Blender I/O v3.2.43",
        "version" : "2.0"
    },
    "scene" : 0,
    "scenes" : [
        {
            "name" : "Scene",
            "nodes" : [
                0
            ]
        }
    ],
    "nodes" : [
        {
            "mesh" : 0,
            "name" : "\u30c6\u30ad\u30b9\u30c8",
            "rotation" : [
                0.7071068286895752,
                0,
                0,
                0.7071068286895752
            ],
            "scale" : [
                0.991965115070343,
                0.991965115070343,
                0.991965115070343
            ],
            "translation" : [
                -5.84234619140625,
                3.8981947898864746,
                1.5878868103027344
            ]
        }
    ],
    "materials" : [
        {
            "doubleSided" : true,
            "name" : "\u30de\u30c6\u30ea\u30a2\u30eb",
            "pbrMetallicRoughness" : {
                "baseColorFactor" : [
                    0.23446783423423767,
                    0.031875159591436386,
                    1,
                    1
                ],
                "metallicFactor" : 0,
                "roughnessFactor" : 0.5
            }
        }
    ],
    "meshes" : [
        {
            "name" : "\u30c6\u30ad\u30b9\u30c8",
            "primitives" : [
                {
                    "attributes" : {
                        "POSITION" : 0,
                        "NORMAL" : 1,
                        "TEXCOORD_0" : 2
                    },
                    "indices" : 3,
                    "material" : 0
                }
            ]
        }
    ],
    "accessors" : [
        {
            "bufferView" : 0,
            "componentType" : 5126,
            "count" : 52684,
            "max" : [
                11.966451644897461,
                0.21000000834465027,
                0.05623023957014084
            ],
            "min" : [
                0.056355319917201996,
                -0.21000000834465027,
                -0.5678293108940125
            ],
            "type" : "VEC3"
        },
        {
            "bufferView" : 1,
            "componentType" : 5126,
            "count" : 52684,
            "type" : "VEC3"
        },
        {
            "bufferView" : 2,
            "componentType" : 5126,
            "count" : 52684,
            "type" : "VEC2"
        },
        {
            "bufferView" : 3,
            "componentType" : 5123,
            "count" : 227988,
            "type" : "SCALAR"
        }
    ],
    "bufferViews" : [
        {
            "buffer" : 0,
            "byteLength" : 632208,
            "byteOffset" : 0
        },
        {
            "buffer" : 0,
            "byteLength" : 632208,
            "byteOffset" : 632208
        },
        {
            "buffer" : 0,
            "byteLength" : 421472,
            "byteOffset" : 1264416
        },
        {
            "buffer" : 0,
            "byteLength" : 455976,
            "byteOffset" : 1685888
        }
    ],
    "buffers" : [
        {
            "byteLength" : 2141864,
            "uri" : "data:application/octet-stream;base64,"
        }
    ]
}
